<svg id="Layer_5" enable-background="new 0 0 64 64" height="96" viewBox="0 0 64 64" width="96" xmlns="http://www.w3.org/2000/svg"><g><path d="m37 25v8l6-.126v-7.874c0-2.761 2.239-5 5-5s5 2.239 5 5v7.874l6 .126v-8c0-6.075-4.925-11-11-11s-11 4.925-11 11z"/><path d="m35 29h-32v19c0 1.654 1.346 3 3 3h27v-13c0-1.627.793-3.061 2-3.974zm-25 19h-4v-8h4zm8 0h-4v-14h4zm8 0h-4v-6h4z"/><path d="m35 25c0-.682.069-1.346.17-2h-15.788l-2.171-4.342c-.512-1.022-1.54-1.658-2.683-1.658h-8.528c-1.654 0-3 1.346-3 3v7h32zm-21-1h-8v-4h8z"/><path d="m19 17.764 1.618 3.236h15.018c1.593-4.911 6.032-8.541 11.364-8.949v-9.051h-40v12h7.528c1.906 0 3.618 1.059 4.472 2.764zm17 1.236h-14v-2h14zm0-4h-14v-2h14zm-23-10h32v2h-32zm-4 0h2v2h-2zm0 4h36v2h-36z"/><path d="m58 35h-20c-1.654 0-3 1.346-3 3v20c0 1.654 1.346 3 3 3h20c1.654 0 3-1.346 3-3v-20c0-1.654-1.346-3-3-3zm-20 2c.552 0 1 .448 1 1s-.448 1-1 1-1-.448-1-1 .448-1 1-1zm0 22c-.552 0-1-.448-1-1s.448-1 1-1 1 .448 1 1-.448 1-1 1zm10-1c-5.523 0-10-4.477-10-10s4.477-10 10-10 10 4.477 10 10-4.477 10-10 10zm10 1c-.552 0-1-.448-1-1s.448-1 1-1 1 .448 1 1-.448 1-1 1zm0-20c-.552 0-1-.448-1-1s.448-1 1-1 1 .448 1 1-.448 1-1 1z"/><path d="m48 42c-2.209 0-4 1.791-4 4 0 1.477.809 2.752 2 3.445v4.555h4v-4.555c1.191-.693 2-1.968 2-3.445 0-2.209-1.791-4-4-4z"/></g></svg>